<svg xmlns="http://www.w3.org/2000/svg" viewBox="0 0 200 200" width="200" height="200">

  <!-- Petals -->
  <g transform="translate(100,100)">
    <ellipse rx="14" ry="40" fill="#F5C518" transform="rotate(0) translate(0,-58)"/>
    <ellipse rx="14" ry="40" fill="#F5C518" transform="rotate(22.5) translate(0,-58)"/>
    <ellipse rx="14" ry="40" fill="#F5C518" transform="rotate(45) translate(0,-58)"/>
    <ellipse rx="14" ry="40" fill="#F5C518" transform="rotate(67.5) translate(0,-58)"/>
    <ellipse rx="14" ry="40" fill="#F5C518" transform="rotate(90) translate(0,-58)"/>
    <ellipse rx="14" ry="40" fill="#F5C518" transform="rotate(112.5) translate(0,-58)"/>
    <ellipse rx="14" ry="40" fill="#F5C518" transform="rotate(135) translate(0,-58)"/>
    <ellipse rx="14" ry="40" fill="#F5C518" transform="rotate(157.5) translate(0,-58)"/>
    <ellipse rx="14" ry="40" fill="#F5C518" transform="rotate(180) translate(0,-58)"/>
    <ellipse rx="14" ry="40" fill="#F5C518" transform="rotate(202.5) translate(0,-58)"/>
    <ellipse rx="14" ry="40" fill="#F5C518" transform="rotate(225) translate(0,-58)"/>
    <ellipse rx="14" ry="40" fill="#F5C518" transform="rotate(247.5) translate(0,-58)"/>
    <ellipse rx="14" ry="40" fill="#F5C518" transform="rotate(270) translate(0,-58)"/>
    <ellipse rx="14" ry="40" fill="#F5C518" transform="rotate(292.5) translate(0,-58)"/>
    <ellipse rx="14" ry="40" fill="#F5C518" transform="rotate(315) translate(0,-58)"/>
    <ellipse rx="14" ry="40" fill="#F5C518" transform="rotate(337.5) translate(0,-58)"/>

    <!-- Inner petal layer (offset) -->
    <ellipse rx="11" ry="34" fill="#E8A800" transform="rotate(11.25) translate(0,-54)"/>
    <ellipse rx="11" ry="34" fill="#E8A800" transform="rotate(33.75) translate(0,-54)"/>
    <ellipse rx="11" ry="34" fill="#E8A800" transform="rotate(56.25) translate(0,-54)"/>
    <ellipse rx="11" ry="34" fill="#E8A800" transform="rotate(78.75) translate(0,-54)"/>
    <ellipse rx="11" ry="34" fill="#E8A800" transform="rotate(101.25) translate(0,-54)"/>
    <ellipse rx="11" ry="34" fill="#E8A800" transform="rotate(123.75) translate(0,-54)"/>
    <ellipse rx="11" ry="34" fill="#E8A800" transform="rotate(146.25) translate(0,-54)"/>
    <ellipse rx="11" ry="34" fill="#E8A800" transform="rotate(168.75) translate(0,-54)"/>
    <ellipse rx="11" ry="34" fill="#E8A800" transform="rotate(191.25) translate(0,-54)"/>
    <ellipse rx="11" ry="34" fill="#E8A800" transform="rotate(213.75) translate(0,-54)"/>
    <ellipse rx="11" ry="34" fill="#E8A800" transform="rotate(236.25) translate(0,-54)"/>
    <ellipse rx="11" ry="34" fill="#E8A800" transform="rotate(258.75) translate(0,-54)"/>
    <ellipse rx="11" ry="34" fill="#E8A800" transform="rotate(281.25) translate(0,-54)"/>
    <ellipse rx="11" ry="34" fill="#E8A800" transform="rotate(303.75) translate(0,-54)"/>
    <ellipse rx="11" ry="34" fill="#E8A800" transform="rotate(326.25) translate(0,-54)"/>
    <ellipse rx="11" ry="34" fill="#E8A800" transform="rotate(348.75) translate(0,-54)"/>

    <!-- Dark seed center -->
    <circle r="30" fill="#3B1F0A"/>
    <!-- Seed texture dots -->
    <circle cx="0" cy="-18" r="3.5" fill="#5C3317"/>
    <circle cx="12" cy="-14" r="3.5" fill="#5C3317"/>
    <circle cx="18" cy="-4" r="3.5" fill="#5C3317"/>
    <circle cx="15" cy="9" r="3.5" fill="#5C3317"/>
    <circle cx="6" cy="18" r="3.5" fill="#5C3317"/>
    <circle cx="-6" cy="18" r="3.5" fill="#5C3317"/>
    <circle cx="-15" cy="9" r="3.5" fill="#5C3317"/>
    <circle cx="-18" cy="-4" r="3.5" fill="#5C3317"/>
    <circle cx="-12" cy="-14" r="3.5" fill="#5C3317"/>
    <circle cx="0" cy="0" r="3.5" fill="#5C3317"/>
    <circle cx="8" cy="6" r="2.5" fill="#5C3317"/>
    <circle cx="-8" cy="6" r="2.5" fill="#5C3317"/>
    <circle cx="0" cy="-8" r="2.5" fill="#5C3317"/>
  </g>
</svg>
